<?xml version="1.0" standalone="no"?>
<!DOCTYPE svg PUBLIC "-//W3C//DTD SVG 1.1//EN" "http://www.w3.org/Graphics/SVG/1.1/DTD/svg11.dtd" >
<svg xmlns="http://www.w3.org/2000/svg" xmlns:xlink="http://www.w3.org/1999/xlink" version="1.1">
<metadata></metadata>
<defs>
<font id="studios_futurabook" horiz-adv-x="1067" >
<font-face units-per-em="2048" ascent="1638" descent="-410" />
<missing-glyph horiz-adv-x="555" />
<glyph horiz-adv-x="0" />
<glyph horiz-adv-x="682" />
<glyph unicode=" "  horiz-adv-x="555" />
<glyph unicode="&#x09;" horiz-adv-x="555" />
<glyph unicode="&#xa0;" horiz-adv-x="555" />
<glyph unicode="!" horiz-adv-x="512" d="M170 121q0 55 41 94t96 39q54 0 94.5 -40.5t40.5 -94.5q0 -58 -40.5 -97.5t-98.5 -39.5q-53 0 -93 42t-40 97zM229 377v1069h162v-1069h-162z" />
<glyph unicode="&#x22;" horiz-adv-x="811" d="M106 1430q0 48 32 76t81 28q44 0 73.5 -27.5t29.5 -70.5q0 -12 -3 -21l-83 -526h-48l-79 502q-3 18 -3 39zM492 1430q0 46 31.5 75t78.5 29q43 0 73 -25.5t30 -66.5q0 -15 -3 -27l-81 -526h-48l-79 502q-2 12 -2 39z" />
<glyph unicode="#" horiz-adv-x="1300" d="M106 459v131h248l37 301h-231v131h248l51 434l137 -16l-51 -418h305l53 434l135 -16l-51 -418h225v-131h-239l-39 -301h223v-131h-237l-60 -465l-133 18l53 447h-305l-59 -465l-133 18l53 447h-230zM492 590h303l36 301h-303z" />
<glyph unicode="$" horiz-adv-x="1110" d="M74 389l168 45q19 -64 31.5 -93.5t37.5 -66.5q27 -40 78 -75q28 -21 48.5 -29t60.5 -14v549q-100 39 -148 66t-92 69q-100 95 -100 247q0 137 88 238q50 56 108 86t148 45v201h135v-199q112 -12 184 -62t140 -163l-142 -88q-37 69 -80.5 105t-105.5 48v-436 q112 -50 164 -82t100 -78q104 -101 104 -268q0 -169 -99.5 -286t-276.5 -154v-213h-129v213q-66 5 -102.5 14.5t-86.5 38.5q-78 45 -133 121q-37 52 -56.5 94t-43.5 127zM330 1108q0 -74 42 -123.5t134 -81.5v393q-86 -17 -131 -65t-45 -123zM621 154q100 23 154 89.5 t54 164.5q0 93 -59 161q-29 30 -59.5 49.5t-89.5 43.5v-508z" />
<glyph unicode="%" horiz-adv-x="1808" d="M84 979q0 238 80.5 360.5t238.5 122.5q151 0 228.5 -118t77.5 -347q0 -230 -82 -352.5t-236 -122.5q-151 0 -229 116.5t-78 340.5zM229 991q0 -175 41 -258.5t127 -83.5t126 84t40 264q0 177 -40 258.5t-128 81.5q-86 0 -126 -83t-40 -263zM492 0l716 1446h117 l-717 -1446h-116zM1100 442q0 238 81.5 360t239.5 122q149 0 226 -117t77 -346q0 -230 -81.5 -352.5t-235.5 -122.5q-151 0 -229 116t-78 340zM1245 455q0 -175 41 -258.5t127 -83.5t126 83.5t40 260.5q0 179 -40 261.5t-128 82.5q-86 0 -126 -83.5t-40 -262.5z" />
<glyph unicode="&#x26;" horiz-adv-x="1280" d="M78 414q0 160 108 268q46 46 78 71t123 85q-25 28 -47 57q-102 126 -102 270q0 131 92.5 214t238.5 83t240 -85.5t94 -219.5q0 -101 -49 -174q-44 -63 -109 -111q-3 -3 -14 -11t-32 -23t-40 -29q-12 -8 -22 -16l297 -365q82 90 153 184l33 43l119 -118l-39 -50 q-10 -13 -32.5 -41.5t-32.5 -39.5q-85 -96 -97 -109l242 -297h-217l-143 176q-93 -84 -166 -125q-120 -69 -252 -69q-182 0 -303 123t-121 309zM260 410q0 -108 74 -187.5t174 -79.5q54 0 92 15q34 12 88 43q38 24 61.5 44t63.5 60l-326 404l-1 -1l-1 -1h-1l-1 -1l-1 -1 l-1 -1h-1l-1 -1l-1 -1l-1 -1h-1l-2 -1l-1 -1l-1 -1h-1l-1 -1l-1 -1l-1 -1l-1 -1q-91 -66 -121 -96l-16 -16q-70 -73 -70 -172zM416 1159q0 -103 121 -239q74 45 104 71q88 76 88 166q0 66 -45 110t-113 44q-66 0 -110.5 -44.5t-44.5 -107.5z" />
<glyph unicode="'" horiz-adv-x="425" d="M106 1430q0 48 32 76t81 28q44 0 73.5 -27.5t29.5 -70.5q0 -12 -3 -21l-83 -526h-48l-79 502q-3 18 -3 39z" />
<glyph unicode="(" horiz-adv-x="485" d="M68 598q0 188 31.5 346t103.5 328q39 91 73.5 155.5t104.5 178.5l135 -78q-90 -155 -147 -289q-71 -169 -102 -313t-31 -312q0 -509 280 -933l-131 -84q-164 232 -240.5 473t-76.5 528z" />
<glyph unicode=")" horiz-adv-x="485" d="M-31 -324q57 96 85.5 151t62.5 138q71 167 102 311t31 312q0 508 -281 934l131 84q164 -232 241 -473.5t77 -528.5q0 -188 -31.5 -346t-103.5 -328q-38 -89 -72.5 -152t-106.5 -181z" />
<glyph unicode="*" horiz-adv-x="894" d="M106 979l224 121l-224 127l68 110l213 -133l-4 250h129l-2 -248l213 129l68 -110l-224 -125l221 -121l-67 -109l-213 125l4 -247h-129l4 247l-213 -125z" />
<glyph unicode="+" horiz-adv-x="1366" d="M88 514v164h510v510h164v-510h516v-164h-516v-514h-164v514h-510z" />
<glyph unicode="," horiz-adv-x="425" d="M12 -262l201 512l162 -64l-238 -501z" />
<glyph unicode="-" horiz-adv-x="681" d="M84 492v145h514v-145h-514z" />
<glyph unicode="." horiz-adv-x="425" d="M80 111q0 55 39 93t94 38q57 0 96 -39.5t39 -96.5q0 -56 -38.5 -93.5t-94.5 -37.5q-57 0 -96 39.5t-39 96.5z" />
<glyph unicode="/" horiz-adv-x="843" d="M49 0l588 1446h158l-588 -1446h-158z" />
<glyph unicode="0" horiz-adv-x="1218" d="M94 709q0 363 143.5 562t378.5 199q228 0 368 -191t140 -540q0 -181 -39 -326.5t-109 -240.5t-165 -146t-207 -51q-223 0 -366.5 197t-143.5 537zM287 737q0 -281 88 -432t233 -151q147 0 233.5 146.5t86.5 420.5q0 291 -83 434t-235 143q-146 0 -234.5 -145.5 t-88.5 -415.5z" />
<glyph unicode="1" horiz-adv-x="598" d="M0 1204l463 266h16v-1470h-172v1182l-221 -127z" />
<glyph unicode="2" horiz-adv-x="1107" d="M80 0l498 588q141 166 194 266t53 201q0 109 -75 176t-195 67q-123 0 -190 -67q-39 -43 -52 -82q-12 -36 -15 -66t-3 -98h-186v25q0 214 120.5 337t329.5 123q203 0 327 -115.5t124 -305.5q0 -118 -57.5 -235t-188.5 -267l-326 -375h545v-172h-903z" />
<glyph unicode="3" horiz-adv-x="1107" d="M68 375h182q30 -246 270 -246q135 0 220 77.5t85 201.5q0 80 -41.5 144t-111.5 93q-60 25 -170 25h-56h-18v161h23q12 -2 36 -2q156 0 223.5 56.5t67.5 187.5q0 117 -67 183.5t-185 66.5q-115 0 -178 -66q-25 -25 -37 -59q-20 -46 -20 -125h-174v14q0 179 111 281 t304 102q198 0 314.5 -104.5t116.5 -284.5q0 -123 -53 -201t-167 -124q50 -16 86 -35q83 -46 130 -131t47 -191q0 -186 -135.5 -305t-348.5 -119q-197 0 -319 101q-98 79 -121 190q-7 38 -14 109z" />
<glyph unicode="4" horiz-adv-x="1107" d="M20 313l807 1182h23v-1032h197v-150h-197v-313h-168v313h-662zM301 463h381v76q0 218 14 538z" />
<glyph unicode="5" horiz-adv-x="1107" d="M31 221l153 98q118 -178 308 -178q141 0 231 94t90 242q0 145 -95.5 237.5t-246.5 92.5q-81 0 -163.5 -24.5t-145.5 -67.5l-17 10l189 721h647v-170h-514l-86 -336q62 18 139 18q212 0 344.5 -131t132.5 -340q0 -223 -146 -367.5t-370 -144.5q-182 0 -319 107 q-39 29 -64 55.5t-67 83.5z" />
<glyph unicode="6" horiz-adv-x="1105" d="M63 457q0 145 60 268q72 140 211 322l350 456l137 -90l-426 -553q66 30 105.5 38.5t107.5 8.5q192 0 315.5 -125t123.5 -321q0 -209 -140.5 -349.5t-349.5 -140.5q-217 0 -355.5 137t-138.5 349zM246 446q0 -135 88 -225t221 -90q135 0 224 93.5t89 234.5 q0 135 -86.5 221t-222.5 86t-224.5 -90t-88.5 -230z" />
<glyph unicode="7" horiz-adv-x="1107" d="M104 1266v180h955l-776 -1489l-166 76l647 1233h-660z" />
<glyph unicode="8" horiz-adv-x="1107" d="M96 389q0 123 63 219.5t175 145.5q-199 111 -199 321q0 175 118 285t306 110q183 0 296.5 -105t113.5 -275t-109 -273q-27 -25 -84 -59q109 -50 172.5 -147t63.5 -216q0 -184 -129 -302t-332 -118q-201 0 -328 115.5t-127 298.5zM285 399q0 -113 73 -182.5t191 -69.5 q123 0 200.5 71t77.5 183q0 114 -77.5 190.5t-194.5 76.5q-120 0 -195 -75t-75 -194zM309 1079q0 -102 69 -171.5t169 -69.5q107 0 178.5 69.5t71.5 173.5q0 100 -70.5 166t-177.5 66q-106 0 -173 -65.5t-67 -168.5z" />
<glyph unicode="9" horiz-adv-x="1105" d="M63 985q0 209 139.5 348.5t350.5 139.5q217 0 355.5 -136t138.5 -350q0 -145 -62 -266q-74 -147 -209 -322l-346 -450l-137 90l420 547q-64 -30 -105 -39.5t-108 -9.5q-192 0 -314.5 125t-122.5 323zM242 985q0 -134 85.5 -218.5t221.5 -84.5q138 0 226.5 88.5 t88.5 226.5q0 135 -88 224.5t-221 89.5q-136 0 -224.5 -92.5t-88.5 -233.5z" />
<glyph unicode=":" horiz-adv-x="512" d="M170 121q0 56 40 95.5t97 39.5q56 0 94.5 -39t38.5 -96q0 -59 -38.5 -98t-96.5 -39q-56 0 -95.5 40t-39.5 97zM170 739q0 57 39 96t96 39t97 -40t40 -97q0 -58 -39 -96.5t-98 -38.5q-57 0 -96 39.5t-39 97.5z" />
<glyph unicode=";" horiz-adv-x="512" d="M106 -264l195 520l162 -66l-230 -505zM207 739q0 57 39 96t96 39t97 -40t40 -97q0 -59 -38.5 -97t-98.5 -38q-57 0 -96 39.5t-39 97.5z" />
<glyph unicode="&#x3c;" horiz-adv-x="1366" d="M0 635v176l1366 641v-176l-1161 -553l1161 -553v-176z" />
<glyph unicode="=" horiz-adv-x="1366" d="M0 332v160h1366v-160h-1366zM0 700v162h1366v-162h-1366z" />
<glyph unicode="&#x3e;" horiz-adv-x="1366" d="M0 -6v176l1161 553l-1161 553v176l1366 -641v-176z" />
<glyph unicode="?" horiz-adv-x="854" d="M147 1106q5 162 86.5 257t239.5 95q136 0 229 -82t93 -215q0 -67 -24 -122t-62.5 -91.5t-84.5 -67.5t-92.5 -58.5t-85 -56t-62.5 -68t-24 -87.5q0 -53 29.5 -89t81.5 -36q120 0 129 185h168q0 -144 -78.5 -233t-220.5 -89q-125 0 -200.5 74.5t-75.5 198.5q0 66 24 120.5 t63 91t85.5 68.5t93 60t85.5 57.5t63 69.5t24 88q0 64 -44.5 102.5t-109.5 38.5q-86 0 -128.5 -62.5t-35.5 -148.5h-166zM342 121q0 57 40 95t97 38t96 -39t39 -96t-38 -97t-95 -40t-98 41t-41 98z" />
<glyph unicode="@" horiz-adv-x="1560" d="M53 721q0 209 99.5 381.5t272.5 271.5t382 99q140 0 266 -47.5t219.5 -131.5t148 -206.5t54.5 -264.5q0 -107 -29 -198q-16 -58 -44 -112t-67.5 -102t-94 -77t-115.5 -29q-58 0 -97 34.5t-57 92.5q-63 -68 -122.5 -99.5t-143.5 -31.5q-162 0 -263.5 114.5t-101.5 278.5 q0 183 115.5 303.5t296.5 120.5q153 0 250 -121l10 105h144l-60 -494q-6 -53 -6 -102q0 -28 13.5 -46t41.5 -18q37 0 70 25.5t56 65.5t38 78t23 73q14 60 14 129q0 160 -75.5 281.5t-202.5 184t-285 62.5q-170 0 -310 -84t-219 -226.5t-79 -311.5q0 -164 79.5 -308 t219.5 -225q141 -80 344 -80q128 0 235 28.5t238 90.5l47 -125q-139 -67 -257 -97t-263 -30q-245 0 -422 103q-170 99 -266.5 272.5t-96.5 372.5zM524 690q0 -101 56 -174.5t153 -73.5q75 0 136 48t91.5 118.5t30.5 143.5q0 97 -59 161t-156 64q-113 0 -182.5 -86 t-69.5 -201z" />
<glyph unicode="A" horiz-adv-x="1280" d="M0 0l633 1487h20l627 -1487h-197l-174 416h-540l-174 -416h-195zM434 569h408l-201 512z" />
<glyph unicode="B" horiz-adv-x="1138" d="M123 0v1446h420q66 0 115.5 -5t105 -19.5t100.5 -46t80 -79.5q64 -88 64 -204q0 -107 -51.5 -192t-145.5 -138q83 -35 123 -66q64 -49 96.5 -127.5t32.5 -165.5q0 -135 -72 -241q-30 -43 -70.5 -74t-80.5 -48t-93.5 -26t-95 -11.5t-100.5 -2.5h-428zM305 162h266 q93 0 159 17.5t112 74.5q47 61 47 149q0 95 -49 158q-47 62 -122.5 82.5t-180.5 20.5h-232v-502zM305 821h236q125 0 204.5 61.5t79.5 182.5q0 64 -22 108.5t-63 67t-88 32t-109 9.5h-238v-461z" />
<glyph unicode="C" horiz-adv-x="1310" d="M78 729q0 210 94 379.5t261.5 265.5t375.5 96q210 0 397 -96v-211q-101 72 -194.5 104.5t-196.5 32.5q-152 0 -276.5 -74.5t-195.5 -205.5t-71 -293q0 -161 74.5 -295t203.5 -210.5t284 -76.5q109 0 231 52q58 25 88.5 44.5t75.5 59.5v-213q-71 -37 -133 -61 q-145 -52 -289 -52q-204 0 -371 98.5t-262.5 271.5t-95.5 384z" />
<glyph unicode="D" horiz-adv-x="1290" d="M123 0v1446h287q346 0 532 -135q129 -95 199.5 -250.5t70.5 -347.5q0 -194 -71 -342q-65 -136 -207 -240q-116 -80 -256 -106q-122 -25 -281 -25h-274zM305 168h123q290 0 443 141.5t153 407.5q0 149 -53.5 267t-151.5 187q-62 42 -133 64q-121 39 -301 39h-80v-1106z " />
<glyph unicode="E" horiz-adv-x="1132" d="M123 0v1446h901v-172h-717v-453h711v-162h-711v-491h723v-168h-907z" />
<glyph unicode="F" horiz-adv-x="1042" d="M123 0v1446h862v-170h-678v-455h670v-162h-670v-659h-184z" />
<glyph unicode="G" horiz-adv-x="1536" d="M78 715v16q0 205 97.5 374.5t267 267t374.5 97.5q178 0 324.5 -79t232.5 -222l-145 -106q-21 51 -72 102q-130 133 -336 133q-232 0 -388.5 -162t-156.5 -403v-20q0 -159 71.5 -288.5t196.5 -203.5t277 -74q205 0 336 134q55 57 82.5 125t38.5 172h-389v174h590v-21 q0 -123 -12.5 -200.5t-43.5 -153.5q-73 -187 -235.5 -294.5t-370.5 -107.5q-205 0 -374.5 97.5t-267 267.5t-97.5 375z" />
<glyph unicode="H" horiz-adv-x="1323" d="M123 0v1446h180v-625h715v625h182v-1446h-182v653h-715v-653h-180z" />
<glyph unicode="I" horiz-adv-x="425" d="M121 0v1446h184v-1446h-184z" />
<glyph unicode="J" horiz-adv-x="696" d="M0 37v164q3 -4 11.5 -10.5t47 -17.5t93.5 -11q123 10 190 90q47 61 47 149v1043h184v-1043q0 -137 -71 -241q-113 -160 -344 -160q-52 0 -91.5 9t-52.5 19z" />
<glyph unicode="K" horiz-adv-x="1110" d="M123 0v1446h184v-649l547 649h227l-587 -680l616 -766h-233l-570 705v-705h-184z" />
<glyph unicode="L" horiz-adv-x="921" d="M123 0v1446h182v-1280h580v-166h-762z" />
<glyph unicode="M" horiz-adv-x="1662" d="M53 0l275 1483h18l490 -1159l493 1159h19l262 -1483h-183l-149 963l-438 -1000h-21l-430 1000l-153 -963h-183z" />
<glyph unicode="N" horiz-adv-x="1492" d="M123 0v1481h18l1057 -1102v1067h172l-2 -1487h-18l-1049 1114v-1073h-178z" />
<glyph unicode="O" horiz-adv-x="1662" d="M78 723q0 212 99.5 383.5t272.5 267.5t386 96q157 0 296 -55.5t239 -152t158 -234t58 -295.5t-60 -299t-163 -241.5t-245 -159t-300 -58.5q-157 0 -295 57.5t-235.5 157t-154 238t-56.5 295.5zM270 725q0 -159 68.5 -290.5t195.5 -209.5t287 -78q164 0 295.5 76.5 t204 209.5t72.5 296q0 249 -156.5 410t-405.5 161q-161 0 -290 -76t-200 -207t-71 -292z" />
<glyph unicode="P" horiz-adv-x="1021" d="M123 0v1446h375q205 0 313 -51q91 -43 144 -138.5t53 -216.5q0 -90 -29.5 -169.5t-83.5 -131.5q-40 -40 -102 -67q-53 -23 -107.5 -32t-146.5 -9h-232v-631h-184zM305 793h219q158 0 227.5 57.5t69.5 189.5q0 129 -71 187.5t-228 58.5h-217v-493z" />
<glyph unicode="Q" horiz-adv-x="1662" d="M78 709q0 157 60 298t162 242.5t243.5 161t298.5 59.5q153 0 291 -58.5t238 -157.5t159 -236.5t59 -290.5q0 -312 -248 -557l267 -260l-211 -12l-185 176q-106 -55 -191 -77t-200 -22q-205 0 -375.5 95.5t-269 264.5t-98.5 374zM274 709q0 -244 160.5 -408t403.5 -164 q127 0 249 58l-325 319l221 12l236 -229q178 190 178 426q0 156 -72.5 287.5t-201.5 208.5t-285 77q-161 0 -291 -79.5t-201.5 -213.5t-71.5 -294z" />
<glyph unicode="R" horiz-adv-x="1114" d="M123 0v1446h383q133 0 189.5 -5t113.5 -20q114 -31 179 -124.5t65 -229.5q0 -228 -185 -332q-123 -67 -306 -67h-11l563 -668h-219l-588 692v-692h-184zM307 819h215q60 0 134 10t110 29q47 27 73.5 78t26.5 119q0 117 -67.5 172t-210.5 55h-281v-463z" />
<glyph unicode="S" horiz-adv-x="1130" d="M47 299l137 135q39 -117 138.5 -196.5t216.5 -79.5q123 0 215 63.5t92 165.5q0 157 -189 248l-217 104q-97 47 -153 95q-140 115 -140 270q0 109 60 193.5t159.5 128.5t221.5 44q132 0 222 -47t200 -159l-121 -123q-24 28 -45 48.5t-60.5 51t-91.5 47.5t-110 17 q-95 0 -164.5 -51t-69.5 -128q0 -69 43 -118t150 -101l180 -86q80 -39 115 -59.5t73 -54.5q129 -120 129 -291q0 -191 -141 -315t-354 -124q-89 0 -168.5 25.5t-132 62t-95.5 84t-64.5 83t-35.5 67.5z" />
<glyph unicode="T" horiz-adv-x="1077" d="M0 1278v168h1077v-168h-446v-1278h-185v1278h-446z" />
<glyph unicode="U" horiz-adv-x="1292" d="M123 594v852h184v-850q0 -175 33 -270q29 -85 110 -133t195 -48q150 0 242 86q58 54 79 131t21 236v848h182v-844q0 -145 -12 -226t-41 -143q-62 -126 -183 -192t-292 -66q-255 0 -391 142q-59 62 -90 147q-23 64 -30 127.5t-7 202.5z" />
<glyph unicode="V" horiz-adv-x="1193" d="M0 1446h203l395 -1043l408 1043h188l-592 -1489h-20z" />
<glyph unicode="W" horiz-adv-x="2004" d="M0 1446h195l393 -1057l403 1112h21l397 -1112l414 1057h182l-592 -1489h-22l-392 1090l-399 -1090h-20z" />
<glyph unicode="X" d="M0 0l426 739l-408 707h201l309 -561l306 561h206l-413 -707l440 -739h-209l-330 594l-329 -594h-199z" />
<glyph unicode="Y" horiz-adv-x="1110" d="M0 1446h209l350 -615l352 615h199l-463 -795v-651h-186v651z" />
<glyph unicode="Z" d="M0 0l731 1284h-610v162h919l-737 -1278h737v-168h-1040z" />
<glyph unicode="[" horiz-adv-x="440" d="M111 -336v1909h319v-127h-170v-1657h170v-125h-319z" />
<glyph unicode="\" horiz-adv-x="614" d="M2 1446h158l471 -1499h-156z" />
<glyph unicode="]" horiz-adv-x="440" d="M12 -209h168v1657h-168v127h320v-1909h-320v125z" />
<glyph unicode="^" horiz-adv-x="1492" d="M291 688l385 758h158l368 -758h-198l-254 533l-263 -533h-196z" />
<glyph unicode="_" horiz-adv-x="1024" d="M-20 -281h1064v-161h-1064v161z" />
<glyph unicode="`" horiz-adv-x="614" d="M111 1243l133 107l260 -271l-96 -78z" />
<glyph unicode="a" d="M66 438q0 202 122.5 336.5t307.5 134.5q201 0 303 -143v127h162v-893h-162v141q-110 -159 -314 -159q-184 0 -301.5 128t-117.5 328zM236 440q0 -138 79 -223.5t207 -85.5q132 0 209.5 84t77.5 229q0 143 -80 231.5t-209 88.5q-124 0 -204 -91.5t-80 -232.5z" />
<glyph unicode="b" d="M106 0v1532h162v-766q128 143 314 143q183 0 301 -132.5t118 -336.5q0 -196 -118 -327t-295 -131q-180 0 -320 137v-119h-162zM270 449q0 -145 78.5 -231.5t210.5 -86.5q123 0 200 86t77 225q0 143 -79 230.5t-208 87.5q-126 0 -202.5 -85.5t-76.5 -225.5z" />
<glyph unicode="c" horiz-adv-x="811" d="M66 438q0 127 60.5 235.5t167.5 172t234 63.5q61 0 134.5 -17.5t113.5 -47.5v-170q-128 78 -237 78q-129 0 -215 -87t-86 -216q0 -131 85 -218.5t216 -87.5q130 0 237 101v-195q-128 -67 -250 -67q-194 0 -327 131t-133 325z" />
<glyph unicode="d" d="M66 440q0 204 122.5 337.5t309.5 133.5q189 0 299 -143v764h164v-1532h-164v139q-121 -157 -324 -157q-177 0 -292 129.5t-115 328.5zM233 438q0 -136 76 -219.5t199 -83.5q130 0 210.5 87.5t80.5 228.5q0 137 -79 221t-208 84q-125 0 -202 -88t-77 -230z" />
<glyph unicode="e" horiz-adv-x="980" d="M66 446q0 203 120.5 333t309.5 130t301 -125.5t112 -337.5v-30h-676q7 -135 82 -213t197 -78q161 0 268 166l113 -86q-34 -50 -55 -73t-54 -50q-115 -100 -278 -100q-193 0 -316.5 130t-123.5 334zM244 557h499q-15 100 -81 158.5t-164 58.5q-97 0 -164.5 -58t-89.5 -159 z" />
<glyph unicode="f" horiz-adv-x="569" d="M20 743v150h134v307q0 145 39 215q32 61 91 97t140 36q31 0 66 -7t54 -14l19 -7v-152q-41 23 -117 23q-66 0 -95 -47.5t-29 -139.5v-311h227v-150h-227v-743h-168v743h-134z" />
<glyph unicode="g" d="M66 438q0 206 120 338.5t306 132.5q103 0 176.5 -37t128.5 -116v137h164v-825q0 -108 -8.5 -170t-30.5 -115q-43 -107 -147.5 -165t-254.5 -58q-199 0 -305 100q-49 46 -73 101.5t-38 154.5h164q10 -63 26 -96t48 -62q68 -59 186 -59q137 0 211 80q31 36 44.5 88.5 t13.5 142.5v129q-107 -157 -305 -157q-188 0 -307 127.5t-119 328.5zM236 440q0 -138 80 -225.5t206 -87.5q129 0 207 83.5t78 221.5q0 148 -78 238t-205 90t-207.5 -89.5t-80.5 -230.5z" />
<glyph unicode="h" horiz-adv-x="980" d="M106 0v1532h170l3 -756q36 39 59.5 57t62.5 37q83 39 164 39q102 0 178 -49q72 -46 103 -116.5t31 -194.5v-549h-168v514q0 86 -15 132t-53 77q-48 39 -125 39q-83 0 -144.5 -48t-84.5 -130q-11 -43 -11 -113v-471h-170z" />
<glyph unicode="i" horiz-adv-x="382" d="M70 1272q0 52 35.5 86.5t87.5 34.5q51 0 85.5 -35t34.5 -86t-34.5 -86t-85.5 -35t-87 35t-36 86zM106 0v893h173v-893h-173z" />
<glyph unicode="j" horiz-adv-x="516" d="M0 -260q41 -23 117 -23q66 0 95.5 47.5t29.5 139.5v989h168v-985q0 -148 -37 -215q-32 -61 -92 -97t-142 -36q-31 0 -66 6.5t-54 13.5l-19 6v154zM203 1276q0 49 35.5 84t85.5 35q49 0 85.5 -36.5t36.5 -86.5q0 -49 -37 -85t-87 -36t-84.5 37.5t-34.5 87.5z" />
<glyph unicode="k" horiz-adv-x="854" d="M106 0v1532h170v-1020l330 381h223l-387 -408l410 -485h-223l-353 430v-430h-170z" />
<glyph unicode="l" horiz-adv-x="382" d="M106 0v1532h170v-1532h-170z" />
<glyph unicode="m" horiz-adv-x="1449" d="M106 0v893h168v-107q97 123 248 123q88 0 144 -31t96 -102q57 69 123.5 101t152.5 32q143 0 226 -80q47 -44 64.5 -102.5t17.5 -173.5v-553h-168v526q0 93 -7.5 130t-33.5 67q-42 51 -123 51q-51 0 -97.5 -23t-72.5 -61q-22 -31 -30.5 -72.5t-8.5 -123.5v-494h-166v512 q0 101 -10 147q-12 55 -50.5 85t-95.5 30q-89 0 -151 -65q-35 -37 -46.5 -82.5t-11.5 -149.5v-477h-168z" />
<glyph unicode="n" horiz-adv-x="980" d="M106 0v893h168v-121q121 139 293 139q73 0 137 -27.5t103 -76.5q70 -81 70 -252v-555h-168v504q0 90 -13 135q-17 58 -63.5 90.5t-112.5 32.5q-72 0 -133.5 -38t-89.5 -101q-23 -53 -23 -152v-471h-168z" />
<glyph unicode="o" d="M66 440q0 97 36.5 183.5t99.5 149.5t150.5 99.5t184.5 36.5q195 0 328.5 -135t133.5 -332q0 -198 -133 -329t-334 -131q-198 0 -332 131.5t-134 326.5zM240 442q0 -132 83.5 -218.5t211.5 -86.5q123 0 207.5 88t84.5 217q0 132 -82.5 222t-205.5 90q-127 0 -213 -90 t-86 -222z" />
<glyph unicode="p" d="M106 -422v1315h166v-121q128 137 314 137q183 0 299 -130.5t116 -336.5q0 -205 -115.5 -332.5t-301.5 -127.5q-100 0 -174.5 34t-137.5 109v-547h-166zM266 451q0 -142 80 -229t211 -87q126 0 200 82t74 221q0 146 -75.5 232t-204.5 86q-128 0 -206.5 -84.5t-78.5 -220.5 z" />
<glyph unicode="q" d="M66 446q0 207 114.5 335t300.5 128q128 0 217 -59q46 -29 97 -82v125h166v-1315h-166v547q-120 -143 -316 -143q-186 0 -299.5 127.5t-113.5 336.5zM236 442q0 -140 72 -222.5t196 -82.5q132 0 212.5 83t80.5 220q0 143 -78.5 228.5t-210.5 85.5q-123 0 -197.5 -86 t-74.5 -226z" />
<glyph unicode="r" horiz-adv-x="681" d="M106 0v893h170v-139q58 82 116 119.5t126 37.5q82 0 164 -57l-84 -149q-39 27 -64.5 37t-58.5 10q-66 0 -121 -58q-43 -44 -60.5 -109t-17.5 -179v-406h-170z" />
<glyph unicode="s" horiz-adv-x="727" d="M35 147l104 103q99 -123 219 -123q62 0 101 31t39 82q0 49 -31 77q-36 33 -133 78q-80 38 -120.5 64t-66.5 55q-53 56 -53 143q0 110 81 182t206 72q124 0 205 -69q37 -34 71 -72l-102 -102q-79 102 -186 102q-49 0 -80 -26t-31 -66q0 -22 10 -39q12 -23 37.5 -39 t100.5 -51q139 -64 194 -121q64 -64 64 -172q0 -121 -87.5 -197.5t-224.5 -76.5q-117 0 -205 61q-1 1 -11.5 9t-14 10t-13.5 10t-15 12.5t-14 13t-15.5 15.5t-14 16t-14.5 18z" />
<glyph unicode="t" horiz-adv-x="667" d="M20 743v150h201v330h170v-330h252v-150h-252v-743h-170v743h-201z" />
<glyph unicode="u" horiz-adv-x="980" d="M106 426v467h166v-444q0 -146 25 -203q23 -54 74.5 -83.5t120.5 -29.5q80 0 133 41q47 37 65.5 91.5t18.5 160.5v467h168v-455q0 -132 -17 -203.5t-61 -125.5q-49 -60 -131 -93.5t-179 -33.5q-134 0 -229 59q-86 54 -120 138.5t-34 246.5z" />
<glyph unicode="v" horiz-adv-x="937" d="M0 893h193l280 -612l283 612h182l-455 -934h-20z" />
<glyph unicode="w" horiz-adv-x="1366" d="M0 893h186l224 -588l268 625h18l265 -625l227 588h178l-395 -934h-21l-268 629l-264 -629h-21z" />
<glyph unicode="x" horiz-adv-x="894" d="M0 0l352 457l-329 436h210q190 -265 218 -301q79 109 225 301h198l-329 -436l352 -457h-213q-39 55 -117.5 164t-117.5 164q-39 -56 -244 -328h-205z" />
<glyph unicode="y" horiz-adv-x="937" d="M0 893h195l297 -580l274 580h172l-610 -1284h-174l245 518z" />
<glyph unicode="z" horiz-adv-x="854" d="M-6 0l557 743h-473v150h788l-561 -748h506v-145h-817z" />
<glyph unicode="{" horiz-adv-x="503" d="M31 537v145q78 15 107.5 56.5t29.5 135.5v422q0 98 19.5 150t68.5 86q61 43 170 43h66v-125h-15q-86 0 -121 -35q-21 -21 -26 -45q-8 -29 -8 -135v-379q0 -108 -31.5 -162t-112.5 -86q41 -14 72 -41q41 -35 56.5 -81t15.5 -134v-348q0 -120 14 -156q24 -67 135 -67h21 v-125h-66q-145 0 -201.5 69t-56.5 246v365q0 83 -16 123q-25 64 -121 78z" />
<glyph unicode="|" horiz-adv-x="468" d="M152 -512v2044h165v-2044h-165z" />
<glyph unicode="}" horiz-adv-x="503" d="M12 -219h29q71 0 106 35q18 15 25 45q8 29 8 135v379q0 107 32 161t114 85q-40 15 -72 43q-42 36 -58 82t-16 133v348q0 79 -1.5 105.5t-10.5 49.5q-24 68 -137 68h-19v125h70q140 0 197 -71t57 -244v-365q0 -85 16 -123q25 -64 121 -78v-145q-78 -15 -107.5 -57 t-29.5 -136v-424q0 -97 -19.5 -148t-68.5 -85q-61 -43 -170 -43h-66v125z" />
<glyph unicode="~" horiz-adv-x="1492" d="M254 594q58 82 121.5 127t150.5 45q53 0 117 -22.5t113 -49t107.5 -49t101.5 -22.5q95 0 196 127l78 -148q-139 -162 -281 -162q-53 0 -112.5 22.5t-104.5 49.5t-103.5 49.5t-109.5 22.5q-31 0 -57 -9.5t-50 -31t-37.5 -37.5t-37.5 -47q-7 -9 -10 -13z" />
<glyph unicode="&#xa1;" horiz-adv-x="512" d="M70 1329q0 58 40 96.5t99 38.5q55 0 94 -42t39 -97t-41 -94t-96 -39q-56 0 -95.5 40.5t-39.5 96.5zM121 0v1071h162v-1071h-162z" />
<glyph unicode="&#xa2;" horiz-adv-x="825" d="M66 442q0 182 109.5 311.5t281.5 151.5v207h116v-207q75 -9 107 -18q37 -11 98 -41v-176q-36 27 -57.5 39t-54.5 24q-49 17 -93 21v-617q58 4 104.5 25t100.5 67v-180q-50 -32 -98 -45q-57 -18 -107 -20v-236h-116v236q-172 23 -281.5 151.5t-109.5 306.5zM236 451 q0 -117 57.5 -196t163.5 -108v605q-103 -25 -162 -104.5t-59 -196.5z" />
<glyph unicode="&#xa3;" horiz-adv-x="1052" d="M41 66q41 96 100 142t156 58q49 83 49 160q0 73 -49 174h-250v121h193q-59 121 -80 189.5t-21 144.5q0 178 125 294.5t316 116.5q181 0 292.5 -106.5t131.5 -300.5l-158 -51q-12 96 -31 145q-26 71 -92.5 114.5t-149.5 43.5q-110 0 -179.5 -69.5t-69.5 -178.5 q0 -65 17.5 -123.5t70.5 -177.5l18 -41h340v-121h-291q25 -94 25 -137q0 -55 -21 -111q-4 -13 -37 -90q48 -13 99 -41q54 -30 108 -57q42 -17 74 -17q50 0 88 33q23 18 37 36.5t45 70.5l135 -74q-111 -227 -297 -227q-53 0 -103.5 16t-129.5 59q-118 62 -172 62 q-68 0 -111 -53q-18 -23 -43 -76z" />
<glyph unicode="&#xa5;" horiz-adv-x="1265" d="M76 1446h209l350 -615l352 615h199l-287 -496h234v-125h-308l-102 -174h410v-123h-410v-528h-186v528h-410v123h410l-101 174h-309v125h235z" />
<glyph unicode="&#xa6;" horiz-adv-x="468" d="M152 389h165v-780h-165v780zM152 631v780h165v-780h-165z" />
<glyph unicode="&#xa7;" horiz-adv-x="915" d="M53 508q0 78 31 147t88 119q31 27 60 42.5t90 37.5l-13 6q-190 96 -190 293q0 141 96.5 230.5t249.5 89.5q156 0 250 -91q49 -47 70 -107.5t26 -160.5h-172q-2 63 -14 103q-14 44 -59 72t-103 28q-75 0 -123.5 -45.5t-48.5 -114.5q0 -57 24 -94q26 -40 73 -71.5 t144 -73.5q93 -41 137.5 -67t84.5 -63q110 -101 110 -258q0 -255 -254 -344q97 -60 142 -131t45 -166q0 -147 -98.5 -240t-254.5 -93q-159 0 -260 96q-46 46 -65 99.5t-25 150.5h176q1 -92 49 -141.5t134 -49.5q78 0 125 46.5t47 123.5q0 48 -27 94q-27 42 -70.5 71.5 t-138.5 68.5q-110 47 -166 84q-79 51 -124.5 133.5t-45.5 175.5zM223 520q0 -101 68 -166t172 -65q100 0 165.5 64.5t65.5 162.5q0 101 -67.5 167.5t-171.5 66.5q-98 0 -165 -66t-67 -164z" />
<glyph unicode="&#xa8;" horiz-adv-x="614" d="M10 1208q0 49 35.5 84t83.5 35q47 0 82 -36.5t35 -82.5h2q0 -50 -36 -83t-87 -33q-45 0 -80 35.5t-35 80.5zM367 1208q0 49 35 83t83 34q50 0 84.5 -34t34.5 -83q0 -46 -34.5 -81t-80.5 -35q-52 0 -87 33t-35 83z" />
<glyph unicode="&#xa9;" horiz-adv-x="1603" d="M55 721q0 153 59.5 292t160.5 239t240.5 159t293.5 59q198 0 369 -101t271.5 -273t100.5 -371q0 -154 -58.5 -293t-158.5 -239t-238.5 -159t-291.5 -59q-204 0 -376 100t-272 271.5t-100 374.5zM182 723q0 -172 83 -317.5t226 -229.5t312 -84q167 0 309.5 84t225.5 227.5 t83 311.5q0 130 -48.5 248t-130.5 204t-196 136.5t-239 50.5q-128 0 -243.5 -50t-199 -134t-133 -201t-49.5 -246zM383 717q0 180 133.5 311t317.5 131q102 0 190 -45q51 -24 113 -78v-172q-39 46 -61 67.5t-52 43.5q-89 61 -197 61q-129 0 -218 -93.5t-89 -229.5 q0 -134 92.5 -228t225.5 -94q84 0 162 39.5t137 110.5v-160q-144 -113 -310 -113q-181 0 -312.5 133t-131.5 316z" />
<glyph unicode="&#xaa;" horiz-adv-x="641" d="M35 1192q0 111 69 194.5t179 83.5q48 0 80.5 -17.5t76.5 -55.5v61h117v-532h-117v69q-47 -43 -81 -61.5t-87 -18.5q-108 0 -172.5 83t-64.5 194zM152 1190q0 -72 39 -120t108 -48q73 0 112.5 51t39.5 125q0 68 -40 117t-106 49q-69 0 -111 -52t-42 -122z" />
<glyph unicode="&#xab;" horiz-adv-x="724" d="M25 455l282 393l109 -84l-240 -309l240 -314l-109 -82zM334 455l264 383l115 -76l-226 -307l226 -312l-115 -75z" />
<glyph unicode="&#xac;" horiz-adv-x="1366" d="M0 518v162h1366v-680h-164v518h-1202z" />
<glyph unicode="&#xad;" horiz-adv-x="681" d="M84 492v145h514v-145h-514z" />
<glyph unicode="&#xae;" horiz-adv-x="1615" d="M55 721q0 153 59.5 292t160.5 239t240.5 159t293.5 59q198 0 369 -101t271.5 -273t100.5 -371q0 -154 -58.5 -293t-158.5 -239t-238.5 -159t-291.5 -59q-204 0 -376 100t-272 271.5t-100 374.5zM180 721q0 -170 83 -314t226 -227.5t312 -83.5q125 0 240 49.5t198 133 t132.5 198.5t49.5 240q0 172 -82.5 318.5t-224 231.5t-307.5 85q-128 0 -244.5 -50t-200 -134t-133 -201t-49.5 -246zM578 305v830h163q91 0 137 -8.5t87 -32.5q100 -62 100 -195q0 -92 -55 -152.5t-150 -72.5l266 -369h-159l-254 365v-365h-135zM713 780h47q168 0 168 119 q0 31 -16 57.5t-42 38.5q-23 11 -43.5 14t-78.5 3h-35v-232z" />
<glyph unicode="&#xaf;" horiz-adv-x="614" d="M14 1143v129h586v-129h-586z" />
<glyph unicode="&#xb0;" horiz-adv-x="727" d="M35 1217q0 137 96 233t234 96q135 0 232 -96t97 -231q0 -139 -96 -236.5t-233 -97.5t-233.5 97t-96.5 235zM197 1214q0 -72 49.5 -123t118.5 -51t118 50.5t49 121.5q0 72 -51 124.5t-121 52.5q-69 0 -116 -50.5t-47 -124.5z" />
<glyph unicode="&#xb1;" horiz-adv-x="1366" d="M84 0v162h1196v-162h-1196zM84 772v162h520v496h162v-496h514v-162h-514v-496h-162v496h-520z" />
<glyph unicode="&#xb2;" horiz-adv-x="724" d="M27 541l329 405q44 54 86 111q45 64 45 133q0 65 -38 105t-101 40q-75 0 -111 -47.5t-38 -146.5h-138q4 155 81.5 238t217.5 83q120 0 195.5 -72.5t75.5 -189.5q0 -64 -25 -125q-38 -81 -125 -180l-194 -227h344v-127h-604z" />
<glyph unicode="&#xb3;" horiz-adv-x="724" d="M63 795l142 -2q8 -63 46 -98.5t101 -35.5q66 0 109 42.5t43 107.5q0 69 -45 111q-23 20 -53.5 28t-86.5 10v119h11q75 0 116 32.5t41 92.5q0 57 -37 95t-92 38q-54 0 -88 -32.5t-43 -92.5l-139 2q14 119 85.5 184.5t186.5 65.5q112 0 186.5 -69.5t74.5 -173.5 q0 -137 -127 -201q56 -25 84 -53q59 -59 59 -160q0 -120 -81.5 -198.5t-207.5 -78.5q-121 0 -196 70.5t-89 196.5z" />
<glyph unicode="&#xb4;" horiz-adv-x="614" d="M113 1081l258 267l131 -103l-295 -244z" />
<glyph unicode="&#xb5;" horiz-adv-x="980" d="M106 -422v1315h166v-444v-19v-20v-19t0.5 -20.5t1.5 -19t2 -20.5t2.5 -18.5t3.5 -20t5 -18t6 -18.5q24 -61 77 -92t122 -31q53 0 92.5 16t63 42t37.5 65.5t19 79.5t5 90v467h168v-893h-166v49q-38 -33 -101.5 -52.5t-120.5 -19.5t-120 19t-97 53v-471h-166z" />
<glyph unicode="&#xb6;" horiz-adv-x="1366" d="M180 1038q0 137 73 242.5t202 144.5q75 21 178 21h471v-111h-70v-1677h-119v1677h-294v-1677h-119v995q-154 26 -238 127.5t-84 257.5z" />
<glyph unicode="&#xb7;" horiz-adv-x="382" d="M55 598q0 57 40.5 98t97.5 41q56 0 96.5 -41.5t40.5 -97.5q0 -58 -39.5 -98.5t-97.5 -40.5q-60 0 -99 39.5t-39 99.5z" />
<glyph unicode="&#xb8;" horiz-adv-x="614" d="M143 -330l197 262l131 -104l-217 -246z" />
<glyph unicode="&#xb9;" horiz-adv-x="724" d="M162 1319v127h295v-905h-144v778h-151z" />
<glyph unicode="&#xba;" horiz-adv-x="665" d="M41 1196q0 118 83.5 196t201.5 78q124 0 203 -77t79 -201q0 -116 -84 -198.5t-200 -82.5q-120 0 -201.5 82.5t-81.5 202.5zM156 1192q0 -71 49 -120.5t119 -49.5q67 0 119.5 49t52.5 115q0 70 -51 124t-121 54t-119 -50.5t-49 -121.5z" />
<glyph unicode="&#xbb;" horiz-adv-x="724" d="M12 143l228 308l-228 311l115 76l264 -387l-264 -383zM309 141l240 310l-240 315l111 82l280 -397l-280 -392z" />
<glyph unicode="&#xbc;" horiz-adv-x="1560" d="M104 1319v127h295v-905h-143v778h-152zM367 0l716 1446h117l-717 -1446h-116zM797 162l522 796h29v-686h122v-110h-122v-162h-131v162h-420zM1008 272h209l10 371z" />
<glyph unicode="&#xbd;" horiz-adv-x="1560" d="M80 1319v127h295v-905h-144v778h-151zM274 0l717 1446h117l-717 -1446h-117zM854 0l328 403q52 64 86 113q47 67 47 131q0 66 -39 106t-102 40q-75 0 -112 -47.5t-38 -147.5h-135q3 156 80 240t217 84q120 0 196 -73.5t76 -189.5q0 -60 -26 -127q-37 -84 -123 -180 l-197 -225h344v-127h-602z" />
<glyph unicode="&#xbe;" horiz-adv-x="1560" d="M55 795h142q8 -64 46.5 -100t100.5 -36q66 0 109 42.5t43 107.5q0 66 -45 111q-23 21 -52.5 28.5t-87.5 9.5v119h8q77 0 118.5 32.5t41.5 92.5q0 57 -37 95t-94 38q-53 0 -86.5 -32.5t-42.5 -92.5h-139q14 119 85.5 185.5t186.5 66.5q111 0 185.5 -69.5t74.5 -173.5 q0 -136 -127 -201q47 -21 84 -53q60 -60 60 -160q0 -120 -81.5 -198.5t-207.5 -78.5q-122 0 -197.5 70.5t-87.5 196.5zM397 0l717 1446h117l-717 -1446h-117zM817 162l522 796h29v-686h123v-110h-123v-162h-131v162h-420zM1026 272h211l10 371z" />
<glyph unicode="&#xbf;" horiz-adv-x="854" d="M59 283q0 61 27 127q22 52 63.5 94.5t85.5 68.5t91 55t84 54t60.5 64t23.5 88q0 55 -28.5 92t-82.5 37q-36 0 -62.5 -16.5t-40 -45t-19.5 -58.5t-7 -65h-168v31q0 128 84.5 209.5t212.5 81.5q122 0 199 -75.5t77 -197.5q0 -66 -24 -120.5t-62.5 -91.5t-85 -69t-93 -60 t-85 -58t-62.5 -70t-24 -88q0 -67 43.5 -103t110.5 -36q71 0 118.5 51.5t47.5 122.5q0 15 -4 35h168q-3 -79 -19.5 -137t-58.5 -109q-90 -106 -250 -106q-133 0 -226.5 82t-93.5 213zM240 1329q0 57 39 96t96 39q61 0 96 -41.5t35 -103.5q0 -55 -37.5 -91t-93.5 -36 q-57 0 -96 40t-39 97z" />
<glyph unicode="&#xc0;" horiz-adv-x="1280" d="M0 0l633 1487h20l627 -1487h-197l-174 416h-540l-174 -416h-195zM367 1708l96 152l319 -222l-75 -118zM434 569h408l-201 512z" />
<glyph unicode="&#xc1;" horiz-adv-x="1280" d="M0 0l633 1487h20l627 -1487h-197l-174 416h-540l-174 -416h-195zM434 569h408l-201 512zM494 1636l319 222l92 -150l-336 -188z" />
<glyph unicode="&#xc2;" horiz-adv-x="1280" d="M0 0l633 1487h20l627 -1487h-197l-174 416h-540l-174 -416h-195zM332 1630l309 221l320 -223l-91 -96l-227 139l-223 -139zM434 569h408l-201 512z" />
<glyph unicode="&#xc3;" horiz-adv-x="1280" d="M0 0l633 1487h20l627 -1487h-197l-174 416h-540l-174 -416h-195zM291 1626q19 54 32.5 79.5t38.5 53.5q55 58 121 58q60 0 172 -66q86 -53 125 -53q29 0 51 21t48 75l8 12l117 -55q-43 -84 -89 -127q-64 -61 -137 -61q-67 0 -186 71q-71 43 -100 43q-22 0 -40.5 -19 t-39.5 -65l-9 -18zM434 569h408l-201 512z" />
<glyph unicode="&#xc4;" horiz-adv-x="1280" d="M0 0l633 1487h20l627 -1487h-197l-174 416h-540l-174 -416h-195zM346 1690q0 46 36 81t83 35q50 0 82 -32t35 -86h2q-3 -51 -36 -83t-81 -32q-49 0 -85 35t-36 82zM434 569h408l-201 512zM705 1688q0 50 33.5 84t82.5 34q50 0 85.5 -34.5t35.5 -83.5q0 -47 -35 -81 t-82 -34q-51 0 -85.5 33t-34.5 82z" />
<glyph unicode="&#xc5;" horiz-adv-x="1280" d="M0 0l633 1487h20l627 -1487h-197l-174 416h-540l-174 -416h-195zM434 569h408l-201 512zM451 1714q0 80 56.5 137.5t135.5 57.5t136 -56.5t57 -134.5q0 -81 -57.5 -138.5t-137.5 -57.5t-135 55.5t-55 136.5zM551 1714q0 -40 26 -67t66 -27q38 0 65 27t27 65q0 40 -27 69 t-65 29t-65 -28t-27 -68z" />
<glyph unicode="&#xc6;" horiz-adv-x="1921" d="M0 0l618 1446h777l75 -172h-657l174 -408h572l69 -161h-573l229 -539h582l73 -166h-780l-172 420h-614l-176 -420h-197zM444 592h471l-243 602z" />
<glyph unicode="&#xc7;" horiz-adv-x="1310" d="M78 729q0 210 94 379.5t261.5 265.5t375.5 96q210 0 397 -96v-211q-101 72 -194.5 104.5t-196.5 32.5q-152 0 -276.5 -74.5t-195.5 -205.5t-71 -293q0 -161 74.5 -295t203.5 -210.5t284 -76.5q109 0 231 52q58 25 88.5 44.5t75.5 59.5v-213q-71 -37 -133 -61 q-145 -52 -289 -52q-204 0 -371 98.5t-262.5 271.5t-95.5 384zM549 -330l194 262l134 -104l-220 -246z" />
<glyph unicode="&#xc8;" horiz-adv-x="980" d="M123 0v1446h756v-172h-572v-406h565v-161h-565v-539h578v-168h-762zM276 1706l97 152l319 -222l-76 -118z" />
<glyph unicode="&#xc9;" horiz-adv-x="980" d="M123 0v1446h756v-172h-572v-406h565v-161h-565v-539h578v-168h-762zM299 1636l319 222l93 -150l-336 -188z" />
<glyph unicode="&#xca;" horiz-adv-x="980" d="M123 0v1446h756v-172h-572v-406h565v-161h-565v-539h578v-168h-762zM180 1628l309 221l320 -223l-90 -96l-227 139l-224 -139z" />
<glyph unicode="&#xcb;" horiz-adv-x="980" d="M123 0v1446h756v-172h-572v-406h565v-161h-565v-539h578v-168h-762zM193 1690q0 47 36 81.5t82 34.5q49 0 83 -34t34 -84q0 -46 -34.5 -80.5t-80.5 -34.5q-48 0 -84 34t-36 83zM551 1688q0 50 34 84t83 34q50 0 84 -34t34 -84q0 -46 -34 -80.5t-80 -34.5 q-50 0 -85.5 32.5t-35.5 82.5z" />
<glyph unicode="&#xcc;" horiz-adv-x="425" d="M0 1706l96 152l318 -222l-76 -118zM121 0v1446h184v-1446h-184z" />
<glyph unicode="&#xcd;" horiz-adv-x="425" d="M23 1636l319 222l92 -150l-336 -188zM121 0v1446h184v-1446h-184z" />
<glyph unicode="&#xce;" horiz-adv-x="425" d="M-96 1628l309 221l319 -223l-90 -96l-229 139l-221 -139zM121 0v1446h184v-1446h-184z" />
<glyph unicode="&#xcf;" horiz-adv-x="425" d="M-84 1690q0 47 36.5 81.5t82.5 34.5q47 0 82 -35.5t35 -82.5t-35 -81t-82 -34t-83 35t-36 82zM121 0v1446h184v-1446h-184zM274 1688q0 51 33 84.5t84 33.5q50 0 84.5 -34.5t34.5 -83.5q0 -46 -34.5 -80.5t-80.5 -34.5q-50 0 -85.5 32.5t-35.5 82.5z" />
<glyph unicode="&#xd0;" horiz-adv-x="1290" d="M-4 713v159h127v574h287q346 0 532 -135q129 -95 199.5 -250.5t70.5 -347.5q0 -194 -71 -342q-65 -136 -207 -240q-116 -80 -256 -106q-122 -25 -281 -25h-274v713h-127zM305 168h123q290 0 443 141.5t153 407.5q0 149 -53.5 267t-151.5 187q-62 42 -133 64 q-121 39 -301 39h-80v-402h395v-159h-395v-545z" />
<glyph unicode="&#xd1;" horiz-adv-x="1492" d="M123 0v1481h18l1057 -1102v1067h172l-2 -1487h-18l-1049 1114v-1073h-178zM399 1630q26 77 75.5 134t119.5 57q42 0 101.5 -30t113 -59.5t80.5 -29.5q12 0 22.5 3.5t19.5 11t16 14t15 19.5t11.5 19.5t11.5 21.5t10 19l117 -55q-36 -79 -93 -133.5t-132 -54.5 q-49 0 -107.5 28.5t-106.5 57t-71 28.5q-20 0 -38.5 -18t-28 -35t-20.5 -42q-2 -5 -3 -7z" />
<glyph unicode="&#xd2;" horiz-adv-x="1662" d="M78 723q0 212 99.5 383.5t272.5 267.5t386 96q157 0 296 -55.5t239 -152t158 -234t58 -295.5t-60 -299t-163 -241.5t-245 -159t-300 -58.5q-157 0 -295 57.5t-235.5 157t-154 238t-56.5 295.5zM270 725q0 -159 68.5 -290.5t195.5 -209.5t287 -78q164 0 295.5 76.5 t204 209.5t72.5 296q0 249 -156.5 410t-405.5 161q-161 0 -290 -76t-200 -207t-71 -292zM618 1706l97 152l317 -222l-76 -118z" />
<glyph unicode="&#xd3;" horiz-adv-x="1662" d="M78 723q0 212 99.5 383.5t272.5 267.5t386 96q157 0 296 -55.5t239 -152t158 -234t58 -295.5t-60 -299t-163 -241.5t-245 -159t-300 -58.5q-157 0 -295 57.5t-235.5 157t-154 238t-56.5 295.5zM270 725q0 -159 68.5 -290.5t195.5 -209.5t287 -78q164 0 295.5 76.5 t204 209.5t72.5 296q0 249 -156.5 410t-405.5 161q-161 0 -290 -76t-200 -207t-71 -292zM641 1636l320 222l92 -150l-336 -188z" />
<glyph unicode="&#xd4;" horiz-adv-x="1662" d="M78 723q0 212 99.5 383.5t272.5 267.5t386 96q157 0 296 -55.5t239 -152t158 -234t58 -295.5t-60 -299t-163 -241.5t-245 -159t-300 -58.5q-157 0 -295 57.5t-235.5 157t-154 238t-56.5 295.5zM270 725q0 -159 68.5 -290.5t195.5 -209.5t287 -78q164 0 295.5 76.5 t204 209.5t72.5 296q0 249 -156.5 410t-405.5 161q-161 0 -290 -76t-200 -207t-71 -292zM522 1628l309 221l320 -223l-90 -96l-227 139l-224 -139z" />
<glyph unicode="&#xd5;" horiz-adv-x="1662" d="M78 723q0 212 99.5 383.5t272.5 267.5t386 96q157 0 296 -55.5t239 -152t158 -234t58 -295.5t-60 -299t-163 -241.5t-245 -159t-300 -58.5q-157 0 -295 57.5t-235.5 157t-154 238t-56.5 295.5zM270 725q0 -159 68.5 -290.5t195.5 -209.5t287 -78q164 0 295.5 76.5 t204 209.5t72.5 296q0 249 -156.5 410t-405.5 161q-161 0 -290 -76t-200 -207t-71 -292zM483 1630q44 92 65 120q52 71 130 71q42 0 101.5 -30t113.5 -59.5t82 -29.5q14 0 27 5.5t21.5 12t18.5 21t14 22t13.5 25.5t11.5 22l117 -55q-22 -42 -40 -69.5t-46 -58t-63 -45.5 t-78 -15q-49 0 -106.5 28.5t-105 57t-71.5 28.5q-12 0 -23 -5.5t-18 -12t-16 -20.5t-12.5 -20.5t-11.5 -23.5t-9 -20z" />
<glyph unicode="&#xd6;" horiz-adv-x="1662" d="M78 723q0 212 99.5 383.5t272.5 267.5t386 96q157 0 296 -55.5t239 -152t158 -234t58 -295.5t-60 -299t-163 -241.5t-245 -159t-300 -58.5q-157 0 -295 57.5t-235.5 157t-154 238t-56.5 295.5zM270 725q0 -159 68.5 -290.5t195.5 -209.5t287 -78q164 0 295.5 76.5 t204 209.5t72.5 296q0 249 -156.5 410t-405.5 161q-161 0 -290 -76t-200 -207t-71 -292zM535 1690q0 47 36 81.5t82 34.5q47 0 82 -35.5t35 -82.5t-35 -81t-82 -34t-82.5 35t-35.5 82zM893 1688q0 51 33 84.5t84 33.5q50 0 84 -34t34 -84q0 -46 -34 -80.5t-80 -34.5 q-50 0 -85.5 32.5t-35.5 82.5z" />
<glyph unicode="&#xd7;" horiz-adv-x="1366" d="M158 188l411 410l-411 412l112 114l414 -411l410 411l114 -114l-409 -412l409 -410l-114 -114l-410 409l-414 -409z" />
<glyph unicode="&#xd8;" horiz-adv-x="1662" d="M66 53l180 178q-89 128 -128.5 233t-39.5 243q0 190 79 350t230 268q96 68 215.5 106.5t235.5 38.5q264 0 495 -180l185 180l84 -86l-183 -180q166 -224 166 -483q0 -171 -68.5 -321.5t-197.5 -256.5q-202 -168 -504 -168q-140 0 -255 40.5t-226 127.5l-182 -174z M262 717q0 -192 115 -363l833 815q-154 134 -368 134q-254 0 -417 -166t-163 -420zM457 266q150 -129 370 -129q124 0 231.5 45.5t183 124.5t118.5 188t43 232q0 193 -113 352z" />
<glyph unicode="&#xd9;" horiz-adv-x="1288" d="M123 594v852h184v-850q0 -167 25 -252q26 -94 109.5 -146.5t203.5 -52.5q150 0 242 86q58 54 79 131t21 236v848h178v-844q0 -145 -12 -226t-41 -143q-60 -126 -181.5 -192t-293.5 -66q-251 0 -387 142q-59 62 -90 147q-23 64 -30 127.5t-7 202.5zM365 1706l96 152 l319 -222l-75 -118z" />
<glyph unicode="&#xda;" horiz-adv-x="1288" d="M123 594v852h184v-850q0 -167 25 -252q26 -94 109.5 -146.5t203.5 -52.5q150 0 242 86q58 54 79 131t21 236v848h178v-844q0 -145 -12 -226t-41 -143q-60 -126 -181.5 -192t-293.5 -66q-251 0 -387 142q-59 62 -90 147q-23 64 -30 127.5t-7 202.5zM510 1636l319 222 l93 -150l-336 -188z" />
<glyph unicode="&#xdb;" horiz-adv-x="1288" d="M123 594v852h184v-850q0 -167 25 -252q26 -94 109.5 -146.5t203.5 -52.5q150 0 242 86q58 54 79 131t21 236v848h178v-844q0 -145 -12 -226t-41 -143q-60 -126 -181.5 -192t-293.5 -66q-251 0 -387 142q-59 62 -90 147q-23 64 -30 127.5t-7 202.5zM338 1624l309 221 l320 -223l-90 -96l-228 139l-223 -139z" />
<glyph unicode="&#xdc;" horiz-adv-x="1288" d="M123 594v852h184v-850q0 -167 25 -252q26 -94 109.5 -146.5t203.5 -52.5q150 0 242 86q58 54 79 131t21 236v848h178v-844q0 -145 -12 -226t-41 -143q-60 -126 -181.5 -192t-293.5 -66q-251 0 -387 142q-59 62 -90 147q-23 64 -30 127.5t-7 202.5zM350 1690q0 46 37 81 t84 35q50 0 81 -32t34 -86h2q-3 -51 -35.5 -83t-81.5 -32t-85 35t-36 82zM709 1688q0 50 34.5 84t83.5 34q50 0 84.5 -34.5t34.5 -83.5q0 -48 -34 -81.5t-83 -33.5q-51 0 -85.5 33t-34.5 82z" />
<glyph unicode="&#xdd;" horiz-adv-x="1110" d="M0 1446h209l350 -615l352 615h199l-463 -795v-651h-186v651zM471 1636l317 222l93 -150l-336 -188z" />
<glyph unicode="&#xde;" horiz-adv-x="901" d="M123 0v1446h184v-191h72q205 0 313 -51q91 -43 144 -138t53 -216q0 -90 -29.5 -169.5t-83.5 -131.5q-41 -41 -102 -68q-53 -23 -107.5 -32t-146.5 -9h-113v-440h-184zM305 602h101q158 0 227 58t69 190q0 129 -71 187.5t-228 58.5h-98v-494z" />
<glyph unicode="&#xdf;" horiz-adv-x="1110" d="M31 741v152h125v149q0 132 12 202.5t45 127.5q49 85 134.5 130.5t193.5 45.5q167 1 276 -106.5t109 -272.5q0 -205 -185 -292q145 -28 221 -131.5t76 -270.5q0 -220 -126.5 -349.5t-340.5 -129.5q-40 0 -79 4v154q61 -7 71 -7q143 0 222 86.5t79 243.5q0 149 -84.5 222 t-257.5 73q-4 0 -17.5 -1t-23.5 -1l-2 152q59 0 83.5 3t58.5 13q65 22 101 79.5t36 139.5q0 107 -59.5 171.5t-159.5 64.5q-92 0 -146 -54q-35 -40 -47 -75q-14 -40 -18 -83t-4 -143v-1038h-168v741h-125z" />
<glyph unicode="&#xe0;" d="M66 438q0 202 122.5 336.5t307.5 134.5q201 0 303 -143v127h162v-893h-162v141q-110 -159 -314 -159q-184 0 -301.5 128t-117.5 328zM236 440q0 -138 79 -223.5t207 -85.5q132 0 209.5 84t77.5 229q0 143 -80 231.5t-209 88.5q-124 0 -204 -91.5t-80 -232.5zM279 1243 l131 107l258 -271l-95 -78z" />
<glyph unicode="&#xe1;" d="M66 438q0 202 122.5 336.5t307.5 134.5q201 0 303 -143v127h162v-893h-162v141q-110 -159 -314 -159q-184 0 -301.5 128t-117.5 328zM236 440q0 -138 79 -223.5t207 -85.5q132 0 209.5 84t77.5 229q0 143 -80 231.5t-209 88.5q-124 0 -204 -91.5t-80 -232.5zM381 1081 l258 267l131 -103l-295 -244z" />
<glyph unicode="&#xe2;" d="M66 438q0 202 122.5 336.5t307.5 134.5q201 0 303 -143v127h162v-893h-162v141q-110 -159 -314 -159q-184 0 -301.5 128t-117.5 328zM236 440q0 -138 79 -223.5t207 -85.5q132 0 209.5 84t77.5 229q0 143 -80 231.5t-209 88.5q-124 0 -204 -91.5t-80 -232.5zM240 1090 l282 258l275 -252l-90 -92l-185 163l-194 -166z" />
<glyph unicode="&#xe3;" d="M66 438q0 202 122.5 336.5t307.5 134.5q201 0 303 -143v127h162v-893h-162v141q-110 -159 -314 -159q-184 0 -301.5 128t-117.5 328zM182 1137q69 190 191 190q60 0 174 -67q89 -52 125 -52q29 0 50.5 20t47.5 72l8 17l117 -57q-40 -69 -58 -94t-46 -50q-43 -43 -121 -43 q-75 0 -185 70q-70 45 -100 45q-21 0 -36.5 -17.5t-43.5 -66.5q-1 -1 -10 -19zM236 440q0 -138 79 -223.5t207 -85.5q132 0 209.5 84t77.5 229q0 143 -80 231.5t-209 88.5q-124 0 -204 -91.5t-80 -232.5z" />
<glyph unicode="&#xe4;" d="M66 438q0 202 122.5 336.5t307.5 134.5q201 0 303 -143v127h162v-893h-162v141q-110 -159 -314 -159q-184 0 -301.5 128t-117.5 328zM233 1184q0 47 35.5 83t81.5 36q47 0 83 -36t36 -83q0 -48 -35 -82.5t-84 -34.5q-47 0 -82 35.5t-35 81.5zM236 440q0 -138 79 -223.5 t207 -85.5q132 0 209.5 84t77.5 229q0 143 -80 231.5t-209 88.5q-124 0 -204 -91.5t-80 -232.5zM592 1184q0 49 34.5 82.5t84.5 33.5q47 0 81.5 -34.5t34.5 -81.5t-34.5 -82t-81.5 -35q-50 0 -84.5 34t-34.5 83z" />
<glyph unicode="&#xe5;" d="M66 438q0 202 122.5 336.5t307.5 134.5q201 0 303 -143v127h162v-893h-162v141q-110 -159 -314 -159q-184 0 -301.5 128t-117.5 328zM236 440q0 -138 79 -223.5t207 -85.5q132 0 209.5 84t77.5 229q0 143 -80 231.5t-209 88.5q-124 0 -204 -91.5t-80 -232.5zM319 1192 q0 82 56.5 139.5t136.5 57.5q79 0 136 -56.5t57 -134.5q0 -81 -57.5 -139t-137.5 -58t-135.5 55.5t-55.5 135.5zM420 1194q0 -40 26 -67t66 -27q38 0 65 27t27 65q0 40 -27 68t-65 28t-65 -27t-27 -67z" />
<glyph unicode="&#xe6;" horiz-adv-x="1536" d="M53 285q0 131 96.5 216t245.5 85q141 0 228 -84v41q0 105 -63.5 166t-172.5 61q-62 0 -129 -20q-67 -19 -149 -68v160q67 34 133 49q82 18 159 18q117 0 192 -39t126 -125q136 164 342 164q219 0 332 -172q54 -85 69 -215q5 -66 6 -106h-675q6 -126 82.5 -205.5 t193.5 -79.5q94 0 174 59q49 38 96 105l115 -86q-78 -117 -174 -172t-219 -55q-106 0 -189.5 39t-162.5 126q-122 -165 -322 -165q-142 0 -238 87t-96 216zM221 287q0 -72 53.5 -116t139.5 -44t143 45.5t57 114.5q0 72 -54 114.5t-146 42.5q-87 0 -140 -43t-53 -114z M803 553h500q-15 103 -82.5 164t-165.5 61t-165.5 -60.5t-86.5 -164.5z" />
<glyph unicode="&#xe7;" horiz-adv-x="811" d="M66 438q0 127 60.5 235.5t167.5 172t234 63.5q61 0 134.5 -17.5t113.5 -47.5v-170q-128 78 -237 78q-129 0 -215 -87t-86 -216q0 -131 85 -218.5t216 -87.5q130 0 237 101v-195q-128 -67 -250 -67q-194 0 -327 131t-133 325zM268 -330l197 262l131 -104l-219 -246z" />
<glyph unicode="&#xe8;" horiz-adv-x="980" d="M66 446q0 203 120.5 333t309.5 130t301 -125.5t112 -337.5v-30h-676q7 -135 82 -213t197 -78q161 0 268 166l113 -86q-34 -50 -55 -73t-54 -50q-115 -100 -278 -100q-193 0 -316.5 130t-123.5 334zM244 557h499q-15 100 -81 158.5t-164 58.5q-97 0 -164.5 -58t-89.5 -159 zM256 1243l131 107l258 -271l-94 -78z" />
<glyph unicode="&#xe9;" horiz-adv-x="980" d="M66 446q0 203 120.5 333t309.5 130t301 -125.5t112 -337.5v-30h-676q7 -135 82 -213t197 -78q161 0 268 166l113 -86q-34 -50 -55 -73t-54 -50q-115 -100 -278 -100q-193 0 -316.5 130t-123.5 334zM244 557h499q-15 100 -81 158.5t-164 58.5q-97 0 -164.5 -58t-89.5 -159 zM367 1081l258 267l131 -103l-295 -244z" />
<glyph unicode="&#xea;" horiz-adv-x="980" d="M66 446q0 203 120.5 333t309.5 130t301 -125.5t112 -337.5v-30h-676q7 -135 82 -213t197 -78q161 0 268 166l113 -86q-34 -50 -55 -73t-54 -50q-115 -100 -278 -100q-193 0 -316.5 130t-123.5 334zM209 1090l283 258l274 -252l-90 -92l-184 163l-195 -166zM244 557h499 q-15 100 -81 158.5t-164 58.5q-97 0 -164.5 -58t-89.5 -159z" />
<glyph unicode="&#xeb;" horiz-adv-x="980" d="M66 446q0 203 120.5 333t309.5 130t301 -125.5t112 -337.5v-30h-676q7 -135 82 -213t197 -78q161 0 268 166l113 -86q-34 -50 -55 -73t-54 -50q-115 -100 -278 -100q-193 0 -316.5 130t-123.5 334zM190 1184q0 47 35.5 83t81.5 36q47 0 83 -36t36 -83q0 -48 -35 -82.5 t-84 -34.5q-47 0 -82 35.5t-35 81.5zM244 557h499q-15 100 -81 158.5t-164 58.5q-97 0 -164.5 -58t-89.5 -159zM549 1184q0 49 34.5 82.5t84.5 33.5q47 0 81.5 -34.5t34.5 -81.5t-34.5 -82t-81.5 -35q-50 0 -84.5 34t-34.5 83z" />
<glyph unicode="&#xec;" horiz-adv-x="382" d="M-37 1243l131 107l258 -271l-94 -78zM106 0v893h173v-893h-173z" />
<glyph unicode="&#xed;" horiz-adv-x="382" d="M37 1081l258 267l131 -103l-293 -244zM106 0v893h173v-893h-173z" />
<glyph unicode="&#xee;" horiz-adv-x="382" d="M-90 1090l280 258l277 -252l-92 -92l-185 163l-194 -166zM106 0v893h173v-893h-173z" />
<glyph unicode="&#xef;" horiz-adv-x="382" d="M-111 1184q0 47 35.5 83t81.5 36q47 0 83 -36t36 -83q0 -48 -35 -82.5t-84 -34.5q-47 0 -82 35.5t-35 81.5zM106 0v893h173v-893h-173zM248 1184q0 49 34.5 82.5t84.5 33.5q47 0 81.5 -34.5t34.5 -81.5t-34.5 -82t-81.5 -35q-50 0 -84.5 34t-34.5 83z" />
<glyph unicode="&#xf0;" d="M66 440q0 195 135 332t327 137q73 0 158 -32q65 -26 117 -72q-36 104 -61 158t-68 120q-35 56 -62.5 89.5t-81.5 87.5l-235 -154l-70 100l213 131q-104 88 -182 133l-25 15l66 90q21 -11 113 -64q76 -45 145 -96l233 152l70 -99l-209 -133q59 -56 85.5 -85t60.5 -76 q101 -138 156 -312.5t55 -357.5q0 -236 -128.5 -379t-342.5 -143q-200 0 -334.5 131.5t-134.5 326.5zM240 442q0 -134 84 -221.5t211 -87.5q123 0 207.5 89.5t84.5 219.5q0 134 -82.5 225t-205.5 91q-128 0 -213.5 -90.5t-85.5 -225.5z" />
<glyph unicode="&#xf1;" horiz-adv-x="980" d="M106 0v893h168v-121q121 139 293 139q73 0 137 -27.5t103 -76.5q70 -81 70 -252v-555h-168v504q0 90 -13 135q-17 58 -63.5 90.5t-112.5 32.5q-72 0 -133.5 -38t-89.5 -101q-23 -53 -23 -152v-471h-168zM141 1137q70 190 193 190q60 0 170 -65q87 -54 127 -54 q28 0 47.5 20t50.5 75l8 14l117 -57q-32 -59 -49.5 -84.5t-44.5 -51.5q-57 -51 -131 -51q-75 0 -185 70q-70 45 -100 45q-23 0 -42.5 -22.5t-47.5 -80.5z" />
<glyph unicode="&#xf2;" d="M66 440q0 97 36.5 183.5t99.5 149.5t150.5 99.5t184.5 36.5q195 0 328.5 -135t133.5 -332q0 -198 -133 -329t-334 -131q-198 0 -332 131.5t-134 326.5zM240 442q0 -132 83.5 -218.5t211.5 -86.5q123 0 207.5 88t84.5 217q0 132 -82.5 222t-205.5 90q-127 0 -213 -90 t-86 -222zM305 1243l131 107l258 -271l-94 -78z" />
<glyph unicode="&#xf3;" d="M66 440q0 97 36.5 183.5t99.5 149.5t150.5 99.5t184.5 36.5q195 0 328.5 -135t133.5 -332q0 -198 -133 -329t-334 -131q-198 0 -332 131.5t-134 326.5zM240 442q0 -132 83.5 -218.5t211.5 -86.5q123 0 207.5 88t84.5 217q0 132 -82.5 222t-205.5 90q-127 0 -213 -90 t-86 -222zM379 1081l258 267l131 -103l-295 -244z" />
<glyph unicode="&#xf4;" d="M66 440q0 97 36.5 183.5t99.5 149.5t150.5 99.5t184.5 36.5q195 0 328.5 -135t133.5 -332q0 -198 -133 -329t-334 -131q-198 0 -332 131.5t-134 326.5zM240 442q0 -132 83.5 -218.5t211.5 -86.5q123 0 207.5 88t84.5 217q0 132 -82.5 222t-205.5 90q-127 0 -213 -90 t-86 -222zM250 1090l282 258l275 -252l-90 -92l-185 163l-194 -166z" />
<glyph unicode="&#xf5;" d="M66 440q0 97 36.5 183.5t99.5 149.5t150.5 99.5t184.5 36.5q195 0 328.5 -135t133.5 -332q0 -198 -133 -329t-334 -131q-198 0 -332 131.5t-134 326.5zM186 1137q26 79 75 134.5t120 55.5q41 0 100 -30t113 -59.5t82 -29.5q14 0 27 5.5t21.5 12.5t18.5 21t14.5 22 t13 25.5t11.5 22.5l117 -57q-53 -90 -76 -117q-60 -70 -151 -70q-41 0 -85.5 18t-76 39.5t-65.5 39.5t-56 18q-13 0 -24.5 -6.5t-22 -21t-16.5 -24.5t-15.5 -28.5t-11.5 -22.5zM240 442q0 -132 83.5 -218.5t211.5 -86.5q123 0 207.5 88t84.5 217q0 132 -82.5 222t-205.5 90 q-127 0 -213 -90t-86 -222z" />
<glyph unicode="&#xf6;" d="M66 440q0 97 36.5 183.5t99.5 149.5t150.5 99.5t184.5 36.5q195 0 328.5 -135t133.5 -332q0 -198 -133 -329t-334 -131q-198 0 -332 131.5t-134 326.5zM229 1184q0 47 35.5 83t81.5 36q47 0 83 -36t36 -83q0 -48 -35 -82.5t-84 -34.5q-47 0 -82 35.5t-35 81.5zM240 442 q0 -132 83.5 -218.5t211.5 -86.5q123 0 207.5 88t84.5 217q0 132 -82.5 222t-205.5 90q-127 0 -213 -90t-86 -222zM588 1184q0 49 34.5 82.5t84.5 33.5q47 0 81.5 -34.5t34.5 -81.5t-34.5 -82t-81.5 -35q-50 0 -84.5 34t-34.5 83z" />
<glyph unicode="&#xf7;" horiz-adv-x="1366" d="M0 514v162h1366v-162h-1366zM569 297q0 49 33.5 83t83.5 34q49 0 82 -33.5t33 -83.5t-33.5 -81.5t-83.5 -31.5q-46 0 -80.5 33t-34.5 80zM569 891q0 49 33.5 83t83.5 34q49 0 82 -35.5t33 -83.5q0 -47 -34 -80t-81 -33q-48 0 -82.5 33t-34.5 82z" />
<glyph unicode="&#xf8;" d="M57 -8l121 135q-58 83 -86.5 155t-28.5 160q0 200 136.5 333.5t337.5 133.5q157 0 276 -88l117 129l71 -67l-114 -127q114 -135 114 -310q0 -200 -133.5 -332t-335.5 -132q-148 0 -278 81l-125 -137zM223 438q0 -120 64 -192l424 463q-44 29 -82.5 41t-89.5 12 q-140 0 -228 -91.5t-88 -232.5zM358 178q71 -47 166 -47q133 0 225.5 87.5t92.5 219.5q0 103 -62 203z" />
<glyph unicode="&#xf9;" horiz-adv-x="980" d="M106 426v467h166v-444q0 -146 25 -203q23 -54 74.5 -83.5t120.5 -29.5q80 0 133 41q47 37 65.5 91.5t18.5 160.5v467h168v-455q0 -132 -17 -203.5t-61 -125.5q-49 -60 -131 -93.5t-179 -33.5q-134 0 -229 59q-86 54 -120 138.5t-34 246.5zM262 1243l131 107l258 -271 l-94 -78z" />
<glyph unicode="&#xfa;" horiz-adv-x="980" d="M106 426v467h166v-444q0 -146 25 -203q23 -54 74.5 -83.5t120.5 -29.5q80 0 133 41q47 37 65.5 91.5t18.5 160.5v467h168v-455q0 -132 -17 -203.5t-61 -125.5q-49 -60 -131 -93.5t-179 -33.5q-134 0 -229 59q-86 54 -120 138.5t-34 246.5zM336 1081l258 267l131 -103 l-295 -244z" />
<glyph unicode="&#xfb;" horiz-adv-x="980" d="M106 426v467h166v-444q0 -146 25 -203q23 -54 74.5 -83.5t120.5 -29.5q80 0 133 41q47 37 65.5 91.5t18.5 160.5v467h168v-455q0 -132 -17 -203.5t-61 -125.5q-49 -60 -131 -93.5t-179 -33.5q-134 0 -229 59q-86 54 -120 138.5t-34 246.5zM209 1090l280 258l277 -252 l-92 -92l-185 163l-194 -166z" />
<glyph unicode="&#xfc;" horiz-adv-x="980" d="M106 426v467h166v-444q0 -146 25 -203q23 -54 74.5 -83.5t120.5 -29.5q80 0 133 41q47 37 65.5 91.5t18.5 160.5v467h168v-455q0 -132 -17 -203.5t-61 -125.5q-49 -60 -131 -93.5t-179 -33.5q-134 0 -229 59q-86 54 -120 138.5t-34 246.5zM190 1184q0 47 35.5 83t81.5 36 q47 0 83 -36t36 -83q0 -48 -35 -82.5t-84 -34.5q-47 0 -82 35.5t-35 81.5zM549 1184q0 49 34.5 82.5t84.5 33.5q47 0 81.5 -34.5t34.5 -81.5t-34.5 -82t-81.5 -35q-50 0 -84.5 34t-34.5 83z" />
<glyph unicode="&#xfd;" horiz-adv-x="937" d="M0 893h195l297 -580l274 580h172l-610 -1284h-174l245 518zM336 1081l258 267l131 -103l-295 -244z" />
<glyph unicode="&#xfe;" d="M106 -422v1954h168v-764q120 141 312 141q183 0 299 -130.5t116 -336.5q0 -205 -115.5 -332.5t-301.5 -127.5q-100 0 -174.5 34t-137.5 109v-547h-166zM266 451q0 -142 80 -229t211 -87q126 0 200 82t74 221q0 146 -75.5 232t-204.5 86q-128 0 -206.5 -84.5t-78.5 -220.5 z" />
<glyph unicode="&#xff;" horiz-adv-x="937" d="M0 893h195l297 -580l274 580h172l-610 -1284h-174l245 518zM176 1184q0 47 35.5 83t81.5 36q47 0 83 -36t36 -83q0 -48 -35 -82.5t-84 -34.5q-47 0 -82 35.5t-35 81.5zM535 1184q0 49 34 82.5t84 33.5q47 0 82 -34.5t35 -81.5t-35 -82t-82 -35q-50 0 -84 34t-34 83z" />
<glyph unicode="&#x152;" horiz-adv-x="2174" d="M78 713q0 213 96 386t267 272t384 99q126 0 249 -40t212 -117q19 -17 82 -84v217h754v-170h-574v-410h574v-161h-574v-537h574v-168h-754v229q-90 -124 -240 -189t-315 -65q-157 0 -293.5 56t-233.5 153.5t-152.5 234.5t-55.5 294zM272 709q0 -155 71.5 -284t199 -204.5 t282.5 -75.5q160 0 290 78.5t203 212t73 293.5q0 246 -161 406.5t-407 160.5q-122 0 -226 -46.5t-174.5 -126t-110.5 -187t-40 -227.5z" />
<glyph unicode="&#x153;" horiz-adv-x="1748" d="M66 438q0 195 134 333t324 138q156 0 271 -92q32 -25 53.5 -48.5t58.5 -74.5q130 215 363 215q189 0 305 -131q57 -66 81.5 -146t24.5 -200v-16h-675q3 -125 84 -207t202 -82q77 0 135.5 37t128.5 131l113 -90q-91 -118 -182 -170.5t-205 -52.5q-127 0 -222 57t-149 166 q-62 -106 -163.5 -164.5t-225.5 -58.5q-192 0 -324 132t-132 324zM233 446q0 -135 84.5 -223t212.5 -88q126 0 211.5 90.5t85.5 223.5q0 130 -86.5 219.5t-212.5 89.5t-210.5 -90t-84.5 -222zM1012 557h504q-13 102 -81.5 162.5t-168.5 60.5q-101 0 -169 -59.5t-85 -163.5z " />
<glyph unicode="&#x178;" horiz-adv-x="1110" d="M0 1446h209l350 -615l352 615h199l-463 -795v-651h-186v651zM258 1690q0 47 35.5 81.5t83.5 34.5q47 0 82 -35.5t35 -82.5t-35 -81t-82 -34t-83 35t-36 82zM614 1688q0 51 34 84.5t85 33.5q49 0 83 -35t34 -83q0 -46 -34.5 -80.5t-80.5 -34.5q-50 0 -85.5 32.5 t-35.5 82.5z" />
<glyph unicode="&#x2c6;" horiz-adv-x="614" d="M29 1090l282 258l275 -252l-90 -92l-187 163l-192 -166z" />
<glyph unicode="&#x2dc;" horiz-adv-x="614" d="M-49 1137q1 3 12 25.5t13.5 27.5t13 25t15.5 26.5t16 22.5t19 21.5t21 16t25 14.5t27 7.5t32 3.5q42 0 101.5 -30t113 -59.5t82.5 -29.5q13 0 25.5 6t21 12.5t19.5 21.5t15 21.5t14.5 25.5t11.5 22l115 -57q-20 -41 -39 -70.5t-46 -58t-62.5 -43.5t-78.5 -15 q-41 0 -85.5 18t-75.5 39.5t-65 39.5t-56 18q-13 0 -24.5 -6.5t-22 -21t-16.5 -24.5t-15.5 -28.5t-11.5 -22.5z" />
<glyph unicode="&#x2000;" horiz-adv-x="954" />
<glyph unicode="&#x2001;" horiz-adv-x="1909" />
<glyph unicode="&#x2002;" horiz-adv-x="954" />
<glyph unicode="&#x2003;" horiz-adv-x="1909" />
<glyph unicode="&#x2004;" horiz-adv-x="636" />
<glyph unicode="&#x2005;" horiz-adv-x="477" />
<glyph unicode="&#x2006;" horiz-adv-x="318" />
<glyph unicode="&#x2007;" horiz-adv-x="318" />
<glyph unicode="&#x2008;" horiz-adv-x="238" />
<glyph unicode="&#x2009;" horiz-adv-x="381" />
<glyph unicode="&#x200a;" horiz-adv-x="106" />
<glyph unicode="&#x2010;" horiz-adv-x="681" d="M84 492v145h514v-145h-514z" />
<glyph unicode="&#x2011;" horiz-adv-x="681" d="M84 492v145h514v-145h-514z" />
<glyph unicode="&#x2012;" horiz-adv-x="681" d="M84 492v145h514v-145h-514z" />
<glyph unicode="&#x2013;" horiz-adv-x="1024" d="M84 492v147h856v-147h-856z" />
<glyph unicode="&#x2014;" horiz-adv-x="1366" d="M0 518v162h1366v-162h-1366z" />
<glyph unicode="&#x2018;" horiz-adv-x="425" d="M27 1024l192 436l123 -37l-158 -452z" />
<glyph unicode="&#x2019;" horiz-adv-x="425" d="M29 1010l159 450l158 -49l-194 -440z" />
<glyph unicode="&#x201a;" horiz-adv-x="425" d="M12 -262l201 512l162 -64l-238 -501z" />
<glyph unicode="&#x201c;" horiz-adv-x="641" d="M27 1024l192 436l123 -37l-158 -452zM293 1020l194 440l123 -39l-157 -450z" />
<glyph unicode="&#x201d;" horiz-adv-x="641" d="M29 1010l159 450l158 -49l-194 -440zM297 1010l160 450l155 -51l-192 -438z" />
<glyph unicode="&#x201e;" horiz-adv-x="641" d="M29 -240l159 451l158 -49l-194 -438zM297 -240l160 453l155 -53l-192 -439z" />
<glyph unicode="&#x2022;" horiz-adv-x="681" d="M74 723q0 110 80.5 188t191.5 78q112 0 187 -77.5t75 -188.5q0 -114 -74 -190t-188 -76q-113 0 -192.5 76.5t-79.5 189.5z" />
<glyph unicode="&#x2026;" horiz-adv-x="2048" d="M225 104q0 49 35.5 82t83.5 33q47 0 80 -34t33 -81q0 -48 -33 -82t-82 -34q-50 0 -83.5 33.5t-33.5 82.5zM909 104q0 49 33.5 82t83.5 33q47 0 81 -34t34 -81q0 -49 -33.5 -82.5t-83.5 -33.5q-49 0 -82 34t-33 82zM1591 104q0 47 35 81t82 34t81 -34t34 -81 q0 -48 -33 -82t-82 -34q-50 0 -83.5 33.5t-33.5 82.5z" />
<glyph unicode="&#x202f;" horiz-adv-x="381" />
<glyph unicode="&#x2039;" horiz-adv-x="460" d="M25 455l282 393l109 -84l-240 -309l240 -314l-109 -82z" />
<glyph unicode="&#x203a;" horiz-adv-x="460" d="M12 143l228 308l-228 311l115 76l264 -387l-264 -383z" />
<glyph unicode="&#x205f;" horiz-adv-x="477" />
<glyph unicode="&#x20ac;" horiz-adv-x="1316" d="M18 532l62 123h102q-2 29 -2 58q0 20 4 98h-166l62 125h127q33 109 61 164.5t84 122.5q200 247 551 247q80 0 162 -16q63 -12 103 -27t110 -51l-64 -155q-104 52 -168.5 70t-148.5 18q-184 0 -315 -99t-181 -274h709l-47 -125h-688q-6 -37 -6 -84q0 -37 4 -72h631 l-48 -123h-561q29 -80 51 -120.5t62 -87.5q74 -88 177 -135.5t222 -47.5q82 0 174 25q72 22 138 61v-184q-13 -4 -30 -11t-22 -9q-136 -48 -274 -48q-257 0 -437.5 146t-252.5 411h-185z" />
<glyph unicode="&#x2122;" horiz-adv-x="1562" d="M27 1321v125h512v-125h-195v-698h-127v698h-190zM549 623l180 850h12l265 -601l280 598h12l156 -847h-131l-84 497l-240 -520h-14l-207 502l-100 -479h-129z" />
<glyph unicode="&#x25fc;" horiz-adv-x="890" d="M0 0v891h891v-891h-891z" />
<glyph unicode="&#xfb01;" horiz-adv-x="970" d="M20 743v150h134v348q0 73 6.5 113t25.5 73q64 121 238 121q67 0 139 -16v-164q-73 23 -117 23q-69 0 -96.5 -36t-27.5 -124v-338h227v-150h-227v-743h-168v743h-134zM657 1272q0 51 35 86t86 35t87 -35t36 -86t-35.5 -86t-87.5 -35q-51 0 -86 35t-35 86zM694 0v893h172 v-893h-172z" />
<glyph unicode="&#xfb02;" horiz-adv-x="972" d="M20 743v150h134v348q0 73 6.5 113t25.5 73q64 121 238 121q67 0 139 -16v-164q-73 23 -117 23q-69 0 -96.5 -36t-27.5 -124v-338h227v-150h-227v-743h-168v743h-134zM696 0v1532h170v-1532h-170z" />
</font>
</defs>
</svg>
